<?xml version="1.0" standalone="no"?><!DOCTYPE svg PUBLIC "-//W3C//DTD SVG 1.1//EN" "http://www.w3.org/Graphics/SVG/1.1/DTD/svg11.dtd"><svg class="icon" width="32px" height="32.00px" viewBox="0 0 1024 1024" version="1.1" xmlns="http://www.w3.org/2000/svg"><path d="M626.70848 683.49952c-58.94144 30.62784-67.60448 61.4912-69.41696 61.77792-6.35904 4.1984-23.71584 2.68288-22.2208 2.44736-25.64096-33.65888-82.688-38.03136-82.688-38.03136-22.40512 59.40224 5.31456 108.0832 5.31456 108.0832 47.24736-5.40672 80.92672-47.40096 81.54112-46.05952 16.7424-2.62144 21.90336-3.20512 22.08768-2.08896 53.01248 31.27296 88.53504 25.088 88.53504 25.088 6.35904-23.17312 3.65568-48.7424 3.61472-49.83808-4.05504-36.9152-26.76736-61.37856-26.76736-61.37856zM465.09056 428.77952a67.24608 67.24608 0 0 0-13.53728-40.87808c1.51552 3.56352 2.4064 7.51616 2.4064 11.76576 0 16.06656-11.80672 29.11232-26.43968 29.11232-14.55104 0-26.4192-13.03552-26.4192-29.11232 0-15.96416 11.85792-28.99968 26.4192-28.99968 1.51552 0 3.072 0.22528 4.53632 0.4608a54.2208 54.2208 0 0 0-25.02656-6.28736c-32.1024 0-58.19392 28.65152-58.19392 63.93856 0 35.23584 26.09152 63.82592 58.19392 63.82592 32.02048 0 58.0608-28.59008 58.0608-63.82592zM653.99808 399.6672c0 16.06656-11.776 29.11232-26.43968 29.11232-14.53056 0-26.4192-13.03552-26.4192-29.11232 0-15.96416 11.88864-28.99968 26.4192-28.99968 1.54624 0 3.072 0.22528 4.53632 0.4608a53.95456 53.95456 0 0 0-25.07776-6.28736c-32.1024 0-58.14272 28.65152-58.14272 63.93856 0 35.23584 26.04032 63.82592 58.14272 63.82592s58.17344-28.59008 58.17344-63.82592a67.24608 67.24608 0 0 0-13.53728-40.87808c1.46432 3.56352 2.34496 7.51616 2.34496 11.76576zM631.05024 562.55488c-12.50304 19.68128-50.28864 68.48512-104.52992 76.81024-55.41888 8.4992-72.74496-5.35552-111.90272-41.00096 0 0-4.352-3.49184-0.29696 3.25632 98.048 143.49312 218.71616-13.03552 216.7296-39.0656zM399.74912 564.24448c-6.6048 0-11.91936 5.40672-11.91936 11.99104 0 0.58368 0.08192 1.16736 0.13312 1.75104a11.90912 11.90912 0 0 0 23.68512-1.75104 11.97056 11.97056 0 0 0-11.89888-11.99104zM636.55936 554.56768c6.06208 0 10.99776-4.53632 11.8272-10.37312 0.08192-0.58368 0.08192-1.15712 0.08192-1.62816 0-6.63552-5.31456-12.05248-11.90912-12.05248s-11.8784 5.40672-11.8784 12.05248a11.9296 11.9296 0 0 0 11.8784 12.00128z" fill="#E60012" /><path d="M937.7792 531.39456c-12.65664-24.10496-36.5056-39.12704-62.16704-39.12704a68.98688 68.98688 0 0 0-29.94176 6.99392L738.47808 464.0768c-5.50912-162.70336-6.78912-373.504-6.78912-375.71584l-0.31744-42.50624L646.144 202.72128 665.23136 17.3056l-25.66144 47.27808C618.55744 103.38304 556.544 206.68416 522.7008 219.136a262.28736 262.28736 0 0 1-90.64448 16.128c-122.18368 0.06144-216.24832-84.49024-217.2416-85.36064l-29.82912-27.19744 12.73856 40.18176c0.82944 2.68288 67.03104 196.59776 89.5488 333.68064-64.28672-56.84224-86.80448-90.78784-97.4848-100.15744-24.94464-21.90336-47.96416-19.56864-47.96416-19.56864-36.90496 4.07552-65.21856 37.6832-65.21856 78.4384 0 43.49952 32.64512 78.90944 72.74496 78.90944 30.98624 0.93184 50.23744-16.83456 54.272-19.0976 4.03456-2.22208 107.28448 126.01344 107.28448 126.01344-1.62816 196.12672-64.33792 346.49088-65.03424 347.65824l-9.58464 17.93024h260.17792l54.72256-107.61216 28.60032 92.416 231.70048-5.19168-4.10624-15.02208c-0.62464-2.16064-58.86976-214.17984-60.99968-358.36928-1.49504-15.03232-2.82624-34.59072-4.08576-58.34752l60.06784 19.74272a83.22048 83.22048 0 0 0 9.45152 37.03808c12.70784 24.15616 36.53632 39.18848 62.27968 39.18848a68.08576 68.08576 0 0 0 36.63872-10.78272c16.78336-10.6496 28.84608-27.77088 33.9968-48.20992a84.30592 84.30592 0 0 0-6.95296-60.14976z m-13.83424 53.8624c-3.61472 14.37696-12.1344 26.43968-24.0128 33.9456a47.872 47.872 0 0 1-25.82528 7.68c-18.03264 0-34.69312-10.58816-43.56096-27.36128a58.84928 58.84928 0 0 1-6.37952-32.6656l0.93184-9.85088-106.01472-34.816 0.79872 16.88576c1.54624 31.68256 3.20512 57.41568 4.98688 75.24352 1.792 125.9008 44.30848 297.33888 57.79456 348.81536l-187.53536 4.18816L556.032 841.08288l-72.2432 141.90592H272.98816c18.80064-42.9056 61.45024-160.65536 57.63072-337.28512l-0.6656-28.81536s-1.65888 2.21184-135.13728-141.1584c-6.38976 22.4768-24.86272 35.40992-47.40096 35.40992-2.64192 0-5.21216-0.34816-7.74144-0.8192-0.26624-0.12288-0.5632-0.12288-0.82944-0.12288a40.07936 40.07936 0 0 1-7.45472-2.21184c-0.74752-0.22528-1.54624-0.4608-2.24256-0.75776-18.76992-8.0896-32.13312-27.94496-32.13312-51.46624 0-28.47744 19.74272-51.77344 44.9536-54.74304 1.76128-0.28672 36.03456-0.12288 52.56192 35.80928 35.75808 30.50496 116.38784 110.1824 116.38784 110.1824s16.87552-83.03616-82.0224-357.08928c38.2976 26.96192 112.65024 69.05856 203.1616 69.05856 33.24928 0 66.0992-5.81632 97.45408-17.34656 32.1024-11.75552 75.86816-76.05248 103.41376-121.2416l-19.43552 188.79488 96.9216-178.30912c0.68608 71.86432 2.56 221.99296 6.8096 342.65088l0.28672 8.4992 130.19136 42.8032 3.92192-2.38592c23.4496-13.39392 54.58944-3.71712 67.49184 20.84864a59.29984 59.29984 0 0 1 4.83328 41.96352z" fill="#E60012" /></svg>